<svg width="20" height="20" viewBox="0 0 20 20" fill="none" xmlns="http://www.w3.org/2000/svg">
<path fill-rule="evenodd" clip-rule="evenodd" d="M10 19.9995C4.47715 19.9995 0 15.5224 0 9.99951C0 4.47666 4.47715 -0.000488281 10 -0.000488281C15.5228 -0.000488281 20 4.47666 20 9.99951C20 15.5224 15.5228 19.9995 10 19.9995ZM10 18.9995C14.9706 18.9995 19 14.9701 19 9.99951C19 5.02895 14.9706 0.999512 10 0.999512C5.02944 0.999512 1 5.02895 1 9.99951C1 14.9701 5.02944 18.9995 10 18.9995Z" fill="#BCBFC2"/>
<path fill-rule="evenodd" clip-rule="evenodd" d="M8.19995 12.3687V7.62986C8.19995 7.44731 8.35315 7.29932 8.54213 7.29932C8.60775 7.29932 8.67198 7.31754 8.72717 7.35181L12.5428 9.72125C12.7017 9.81997 12.7478 10.0245 12.6456 10.178C12.6191 10.2179 12.584 10.2517 12.5428 10.2773L8.72717 12.6468C8.5682 12.7455 8.35649 12.701 8.2543 12.5475C8.21882 12.4942 8.19995 12.4321 8.19995 12.3687Z" fill="#262D33"/>
</svg>
