<svg width="119" height="40" viewBox="0 0 119 40" fill="none" xmlns="http://www.w3.org/2000/svg">
<rect width="119" height="40" rx="20" fill="#4592FF"/>
<path d="M35.7132 16.789C35.6479 16.8963 35.5802 16.9757 35.5102 17.027C35.4449 17.0737 35.3586 17.097 35.2512 17.097C35.1486 17.097 35.0366 17.062 34.9152 16.992C34.7986 16.9173 34.6609 16.838 34.5022 16.754C34.3436 16.67 34.1616 16.593 33.9562 16.523C33.7509 16.4483 33.5106 16.411 33.2352 16.411C32.7499 16.411 32.3859 16.5207 32.1432 16.74C31.9006 16.9547 31.7792 17.237 31.7792 17.587C31.7792 17.811 31.8446 17.9977 31.9752 18.147C32.1106 18.2917 32.2856 18.4177 32.5002 18.525C32.7196 18.6323 32.9669 18.728 33.2422 18.812C33.5176 18.896 33.7999 18.9893 34.0892 19.092C34.3786 19.19 34.6609 19.3067 34.9362 19.442C35.2116 19.5773 35.4566 19.7477 35.6712 19.953C35.8906 20.1583 36.0656 20.4103 36.1962 20.709C36.3316 21.003 36.3992 21.3623 36.3992 21.787C36.3992 22.249 36.3176 22.683 36.1542 23.089C35.9956 23.4903 35.7646 23.8427 35.4612 24.146C35.1579 24.4447 34.7822 24.6803 34.3342 24.853C33.8909 25.0257 33.3869 25.112 32.8222 25.112C32.5002 25.112 32.1782 25.0793 31.8562 25.014C31.5389 24.9487 31.2309 24.8577 30.9322 24.741C30.6382 24.6243 30.3606 24.4843 30.0992 24.321C29.8379 24.1577 29.6092 23.9757 29.4132 23.775L30.0292 22.781C30.0806 22.7063 30.1482 22.6457 30.2322 22.599C30.3162 22.5477 30.4049 22.522 30.4982 22.522C30.6242 22.522 30.7572 22.5687 30.8972 22.662C31.0372 22.7553 31.1982 22.858 31.3802 22.97C31.5622 23.082 31.7722 23.1847 32.0102 23.278C32.2529 23.3713 32.5422 23.418 32.8782 23.418C33.3682 23.418 33.7462 23.306 34.0122 23.082C34.2829 22.858 34.4182 22.5243 34.4182 22.081C34.4182 21.8243 34.3506 21.6167 34.2152 21.458C34.0846 21.2993 33.9119 21.1663 33.6972 21.059C33.4826 20.9517 33.2376 20.8607 32.9622 20.786C32.6869 20.7067 32.4046 20.6203 32.1152 20.527C31.8259 20.4337 31.5436 20.3217 31.2682 20.191C30.9929 20.0603 30.7479 19.8877 30.5332 19.673C30.3186 19.4583 30.1436 19.1923 30.0082 18.875C29.8776 18.5577 29.8122 18.1633 29.8122 17.692C29.8122 17.314 29.8869 16.9477 30.0362 16.593C30.1856 16.2383 30.4049 15.9233 30.6942 15.648C30.9836 15.3727 31.3382 15.151 31.7582 14.983C32.1829 14.815 32.6682 14.731 33.2142 14.731C33.8256 14.731 34.3902 14.8267 34.9082 15.018C35.4309 15.2047 35.8719 15.466 36.2312 15.802L35.7132 16.789ZM43.8681 17.783V25H42.6781C42.4308 25 42.2721 24.888 42.2021 24.664L42.0761 24.16C41.9314 24.3 41.7821 24.4283 41.6281 24.545C41.4741 24.6617 41.3084 24.762 41.1311 24.846C40.9584 24.93 40.7694 24.9953 40.5641 25.042C40.3634 25.0887 40.1441 25.112 39.9061 25.112C39.5141 25.112 39.1641 25.0443 38.8561 24.909C38.5528 24.7737 38.2984 24.5847 38.0931 24.342C37.8878 24.0993 37.7314 23.81 37.6241 23.474C37.5168 23.138 37.4631 22.7693 37.4631 22.368V17.783H39.3951V22.368C39.3951 22.7693 39.4861 23.082 39.6681 23.306C39.8548 23.5253 40.1301 23.635 40.4941 23.635C40.7648 23.635 41.0191 23.5767 41.2571 23.46C41.4951 23.3387 41.7214 23.1753 41.9361 22.97V17.783H43.8681ZM47.3948 23.096C47.5768 23.306 47.7728 23.453 47.9828 23.537C48.1975 23.621 48.4191 23.663 48.6478 23.663C48.8858 23.663 49.1005 23.621 49.2918 23.537C49.4878 23.4483 49.6558 23.3107 49.7958 23.124C49.9358 22.9327 50.0431 22.6853 50.1178 22.382C50.1925 22.0787 50.2298 21.7123 50.2298 21.283C50.2298 20.9003 50.1995 20.576 50.1388 20.31C50.0781 20.0393 49.9871 19.8177 49.8658 19.645C49.7491 19.4723 49.6045 19.3463 49.4318 19.267C49.2591 19.1877 49.0585 19.148 48.8298 19.148C48.5265 19.148 48.2628 19.2157 48.0388 19.351C47.8195 19.4817 47.6048 19.6753 47.3948 19.932V23.096ZM47.3948 18.616C47.6795 18.3313 47.9945 18.1027 48.3398 17.93C48.6851 17.7573 49.0725 17.671 49.5018 17.671C49.9171 17.671 50.2905 17.755 50.6218 17.923C50.9578 18.0863 51.2425 18.322 51.4758 18.63C51.7138 18.938 51.8958 19.3113 52.0218 19.75C52.1525 20.184 52.2178 20.6717 52.2178 21.213C52.2178 21.7963 52.1431 22.3283 51.9938 22.809C51.8491 23.285 51.6415 23.6933 51.3708 24.034C51.1001 24.3747 50.7758 24.6383 50.3978 24.825C50.0245 25.0117 49.6068 25.105 49.1448 25.105C48.9208 25.105 48.7201 25.0817 48.5428 25.035C48.3655 24.993 48.2021 24.9323 48.0528 24.853C47.9035 24.7737 47.7658 24.6803 47.6398 24.573C47.5138 24.461 47.3948 24.3373 47.2828 24.202L47.2058 24.636C47.1731 24.7713 47.1195 24.867 47.0448 24.923C46.9701 24.9743 46.8698 25 46.7438 25H45.4628V14.563H47.3948V18.616ZM57.9478 19.267C57.8965 19.3463 57.8428 19.4047 57.7868 19.442C57.7355 19.4747 57.6632 19.491 57.5698 19.491C57.4765 19.491 57.3808 19.4677 57.2828 19.421C57.1848 19.3743 57.0752 19.3253 56.9538 19.274C56.8325 19.218 56.6925 19.1667 56.5338 19.12C56.3798 19.0733 56.2002 19.05 55.9948 19.05C55.6822 19.05 55.4395 19.1153 55.2668 19.246C55.0942 19.372 55.0078 19.54 55.0078 19.75C55.0078 19.8947 55.0568 20.016 55.1548 20.114C55.2528 20.212 55.3812 20.2983 55.5398 20.373C55.7032 20.443 55.8875 20.5107 56.0928 20.576C56.2982 20.6367 56.5082 20.7043 56.7228 20.779C56.9422 20.8537 57.1545 20.94 57.3598 21.038C57.5652 21.136 57.7472 21.2597 57.9058 21.409C58.0692 21.5537 58.1998 21.731 58.2978 21.941C58.3958 22.1463 58.4448 22.396 58.4448 22.69C58.4448 23.04 58.3795 23.3643 58.2488 23.663C58.1228 23.957 57.9362 24.2113 57.6888 24.426C57.4415 24.6407 57.1335 24.8087 56.7648 24.93C56.3962 25.0513 55.9715 25.112 55.4908 25.112C55.2435 25.112 54.9985 25.0887 54.7558 25.042C54.5132 25 54.2822 24.9393 54.0628 24.86C53.8435 24.776 53.6382 24.6803 53.4468 24.573C53.2555 24.4657 53.0898 24.349 52.9498 24.223L53.3978 23.502C53.4492 23.418 53.5122 23.3527 53.5868 23.306C53.6662 23.2593 53.7665 23.236 53.8878 23.236C54.0045 23.236 54.1118 23.2663 54.2098 23.327C54.3078 23.383 54.4175 23.446 54.5388 23.516C54.6602 23.5813 54.8025 23.6443 54.9658 23.705C55.1338 23.761 55.3415 23.789 55.5888 23.789C55.7755 23.789 55.9365 23.768 56.0718 23.726C56.2072 23.684 56.3168 23.628 56.4008 23.558C56.4848 23.4833 56.5455 23.4017 56.5828 23.313C56.6248 23.2197 56.6458 23.124 56.6458 23.026C56.6458 22.8673 56.5945 22.739 56.4918 22.641C56.3938 22.5383 56.2632 22.4497 56.0998 22.375C55.9412 22.3003 55.7568 22.2327 55.5468 22.172C55.3368 22.1113 55.1222 22.0437 54.9028 21.969C54.6882 21.8943 54.4758 21.8057 54.2658 21.703C54.0605 21.6003 53.8762 21.472 53.7128 21.318C53.5542 21.1593 53.4235 20.9657 53.3208 20.737C53.2228 20.5083 53.1738 20.2307 53.1738 19.904C53.1738 19.6053 53.2322 19.323 53.3488 19.057C53.4655 18.7863 53.6405 18.5483 53.8738 18.343C54.1072 18.1377 54.3965 17.9743 54.7418 17.853C55.0918 17.7317 55.4955 17.671 55.9528 17.671C56.4662 17.671 56.9328 17.755 57.3528 17.923C57.7728 18.091 58.1182 18.3103 58.3888 18.581L57.9478 19.267ZM64.8902 19.393C64.8342 19.4677 64.7782 19.526 64.7222 19.568C64.6662 19.6053 64.5869 19.624 64.4842 19.624C64.3909 19.624 64.2999 19.5983 64.2112 19.547C64.1272 19.491 64.0292 19.4327 63.9172 19.372C63.8052 19.3067 63.6722 19.2483 63.5182 19.197C63.3642 19.141 63.1729 19.113 62.9442 19.113C62.6549 19.113 62.4029 19.1667 62.1882 19.274C61.9782 19.3767 61.8032 19.526 61.6632 19.722C61.5232 19.918 61.4182 20.156 61.3482 20.436C61.2829 20.716 61.2502 21.031 61.2502 21.381C61.2502 22.1183 61.3972 22.683 61.6912 23.075C61.9899 23.467 62.3959 23.663 62.9092 23.663C63.0865 23.663 63.2382 23.649 63.3642 23.621C63.4949 23.5883 63.6069 23.5487 63.7002 23.502C63.7982 23.4553 63.8822 23.404 63.9522 23.348C64.0222 23.292 64.0875 23.2407 64.1482 23.194C64.2135 23.1473 64.2765 23.11 64.3372 23.082C64.4025 23.0493 64.4749 23.033 64.5542 23.033C64.7035 23.033 64.8202 23.089 64.9042 23.201L65.4572 23.901C65.2519 24.139 65.0325 24.3373 64.7992 24.496C64.5659 24.65 64.3232 24.7737 64.0712 24.867C63.8239 24.9557 63.5719 25.0163 63.3152 25.049C63.0585 25.0863 62.8042 25.105 62.5522 25.105C62.1089 25.105 61.6889 25.0233 61.2922 24.86C60.8955 24.692 60.5479 24.4493 60.2492 24.132C59.9505 23.8147 59.7125 23.425 59.5352 22.963C59.3625 22.501 59.2762 21.9737 59.2762 21.381C59.2762 20.8537 59.3532 20.3637 59.5072 19.911C59.6612 19.4583 59.8875 19.0663 60.1862 18.735C60.4849 18.4037 60.8535 18.1447 61.2922 17.958C61.7355 17.7667 62.2465 17.671 62.8252 17.671C63.3759 17.671 63.8589 17.7597 64.2742 17.937C64.6895 18.1143 65.0629 18.371 65.3942 18.707L64.8902 19.393ZM68.2485 18.973C68.4771 18.5623 68.7408 18.238 69.0395 18C69.3381 17.762 69.6881 17.643 70.0895 17.643C70.4161 17.643 70.6821 17.72 70.8875 17.874L70.7615 19.302C70.7381 19.3953 70.7008 19.4607 70.6495 19.498C70.6028 19.5307 70.5375 19.547 70.4535 19.547C70.3788 19.547 70.2715 19.5377 70.1315 19.519C69.9915 19.4957 69.8608 19.484 69.7395 19.484C69.5621 19.484 69.4035 19.5097 69.2635 19.561C69.1281 19.6123 69.0068 19.6847 68.8995 19.778C68.7921 19.8713 68.6941 19.9857 68.6055 20.121C68.5215 20.2563 68.4421 20.4103 68.3675 20.583V25H66.4355V17.783H67.5765C67.7725 17.783 67.9078 17.818 67.9825 17.888C68.0571 17.958 68.1108 18.0793 68.1435 18.252L68.2485 18.973ZM73.7008 17.783V25H71.7688V17.783H73.7008ZM73.9318 15.732C73.9318 15.8953 73.8991 16.047 73.8338 16.187C73.7685 16.327 73.6798 16.4507 73.5678 16.558C73.4605 16.6653 73.3321 16.7493 73.1828 16.81C73.0381 16.8707 72.8818 16.901 72.7138 16.901C72.5551 16.901 72.4035 16.8707 72.2588 16.81C72.1188 16.7493 71.9951 16.6653 71.8878 16.558C71.7805 16.4507 71.6941 16.327 71.6288 16.187C71.5681 16.047 71.5378 15.8953 71.5378 15.732C71.5378 15.5687 71.5681 15.417 71.6288 15.277C71.6941 15.1323 71.7805 15.0063 71.8878 14.899C71.9951 14.7917 72.1188 14.7077 72.2588 14.647C72.4035 14.5863 72.5551 14.556 72.7138 14.556C72.8818 14.556 73.0381 14.5863 73.1828 14.647C73.3321 14.7077 73.4605 14.7917 73.5678 14.899C73.6798 15.0063 73.7685 15.1323 73.8338 15.277C73.8991 15.417 73.9318 15.5687 73.9318 15.732ZM77.2815 23.096C77.4635 23.306 77.6595 23.453 77.8695 23.537C78.0842 23.621 78.3058 23.663 78.5345 23.663C78.7725 23.663 78.9872 23.621 79.1785 23.537C79.3745 23.4483 79.5425 23.3107 79.6825 23.124C79.8225 22.9327 79.9298 22.6853 80.0045 22.382C80.0792 22.0787 80.1165 21.7123 80.1165 21.283C80.1165 20.9003 80.0862 20.576 80.0255 20.31C79.9648 20.0393 79.8738 19.8177 79.7525 19.645C79.6358 19.4723 79.4912 19.3463 79.3185 19.267C79.1458 19.1877 78.9452 19.148 78.7165 19.148C78.4132 19.148 78.1495 19.2157 77.9255 19.351C77.7062 19.4817 77.4915 19.6753 77.2815 19.932V23.096ZM77.2815 18.616C77.5662 18.3313 77.8812 18.1027 78.2265 17.93C78.5718 17.7573 78.9592 17.671 79.3885 17.671C79.8038 17.671 80.1772 17.755 80.5085 17.923C80.8445 18.0863 81.1292 18.322 81.3625 18.63C81.6005 18.938 81.7825 19.3113 81.9085 19.75C82.0392 20.184 82.1045 20.6717 82.1045 21.213C82.1045 21.7963 82.0298 22.3283 81.8805 22.809C81.7358 23.285 81.5282 23.6933 81.2575 24.034C80.9868 24.3747 80.6625 24.6383 80.2845 24.825C79.9112 25.0117 79.4935 25.105 79.0315 25.105C78.8075 25.105 78.6068 25.0817 78.4295 25.035C78.2522 24.993 78.0888 24.9323 77.9395 24.853C77.7902 24.7737 77.6525 24.6803 77.5265 24.573C77.4005 24.461 77.2815 24.3373 77.1695 24.202L77.0925 24.636C77.0598 24.7713 77.0062 24.867 76.9315 24.923C76.8568 24.9743 76.7565 25 76.6305 25H75.3495V14.563H77.2815V18.616ZM87.9256 20.541C87.9256 20.3403 87.8976 20.149 87.8416 19.967C87.7902 19.785 87.7062 19.624 87.5896 19.484C87.4729 19.344 87.3259 19.2343 87.1486 19.155C86.9712 19.071 86.7589 19.029 86.5116 19.029C86.0496 19.029 85.6879 19.1597 85.4266 19.421C85.1652 19.6823 84.9949 20.0557 84.9156 20.541H87.9256ZM84.8876 21.689C84.9482 22.3657 85.1396 22.8603 85.4616 23.173C85.7882 23.4857 86.2129 23.642 86.7356 23.642C87.0016 23.642 87.2302 23.6117 87.4216 23.551C87.6176 23.4857 87.7879 23.4157 87.9326 23.341C88.0819 23.2617 88.2149 23.1917 88.3316 23.131C88.4529 23.0657 88.5719 23.033 88.6886 23.033C88.8379 23.033 88.9546 23.089 89.0386 23.201L89.5986 23.901C89.3932 24.139 89.1669 24.3373 88.9196 24.496C88.6722 24.65 88.4156 24.7737 88.1496 24.867C87.8836 24.9557 87.6152 25.0163 87.3446 25.049C87.0739 25.0863 86.8126 25.105 86.5606 25.105C86.0566 25.105 85.5852 25.0233 85.1466 24.86C84.7126 24.692 84.3322 24.447 84.0056 24.125C83.6836 23.7983 83.4292 23.3947 83.2426 22.914C83.0559 22.4333 82.9626 21.8757 82.9626 21.241C82.9626 20.751 83.0419 20.289 83.2006 19.855C83.3639 19.421 83.5972 19.043 83.9006 18.721C84.2039 18.399 84.5726 18.1447 85.0066 17.958C85.4406 17.7667 85.9306 17.671 86.4766 17.671C86.9386 17.671 87.3632 17.7457 87.7506 17.895C88.1426 18.0397 88.4786 18.252 88.7586 18.532C89.0432 18.812 89.2626 19.1573 89.4166 19.568C89.5752 19.974 89.6546 20.4383 89.6546 20.961C89.6546 21.1057 89.6476 21.2247 89.6336 21.318C89.6196 21.4113 89.5962 21.486 89.5636 21.542C89.5309 21.598 89.4866 21.6377 89.4306 21.661C89.3746 21.6797 89.3022 21.689 89.2136 21.689H84.8876Z" fill="white"/>
</svg>
