<svg width="138" height="40" viewBox="0 0 138 40" fill="none" xmlns="http://www.w3.org/2000/svg">
<rect y="-0.000488281" width="138" height="40" rx="20" fill="#4592FF"/>
<path fill-rule="evenodd" clip-rule="evenodd" d="M101 19.9995V20.9995H112V23.9995L116 20.4995L112 16.9995V19.9995H101Z" fill="white"/>
<path d="M29.242 19.6515C29.5827 19.6515 29.8767 19.6095 30.124 19.5255C30.3713 19.4368 30.5743 19.3178 30.733 19.1685C30.8917 19.0145 31.0083 18.8348 31.083 18.6295C31.1577 18.4242 31.195 18.2002 31.195 17.9575C31.195 17.4768 31.034 17.1035 30.712 16.8375C30.3947 16.5715 29.9093 16.4385 29.256 16.4385H28.164V19.6515H29.242ZM34.163 24.9995H32.266C31.9113 24.9995 31.6547 24.8642 31.496 24.5935L29.564 21.4785C29.4847 21.3572 29.396 21.2685 29.298 21.2125C29.2047 21.1565 29.0647 21.1285 28.878 21.1285H28.164V24.9995H26.064V14.8425H29.256C29.9653 14.8425 30.572 14.9172 31.076 15.0665C31.58 15.2112 31.993 15.4142 32.315 15.6755C32.637 15.9368 32.8727 16.2495 33.022 16.6135C33.1713 16.9728 33.246 17.3695 33.246 17.8035C33.246 18.1395 33.197 18.4592 33.099 18.7625C33.0057 19.0612 32.868 19.3342 32.686 19.5815C32.504 19.8288 32.28 20.0482 32.014 20.2395C31.748 20.4308 31.4447 20.5848 31.104 20.7015C31.2393 20.7762 31.3653 20.8672 31.482 20.9745C31.5987 21.0772 31.7037 21.2008 31.797 21.3455L34.163 24.9995ZM38.9893 20.5405C38.9893 20.3398 38.9613 20.1485 38.9053 19.9665C38.8539 19.7845 38.7699 19.6235 38.6533 19.4835C38.5366 19.3435 38.3896 19.2338 38.2123 19.1545C38.0349 19.0705 37.8226 19.0285 37.5753 19.0285C37.1133 19.0285 36.7516 19.1592 36.4903 19.4205C36.2289 19.6818 36.0586 20.0552 35.9793 20.5405H38.9893ZM35.9513 21.6885C36.0119 22.3652 36.2033 22.8598 36.5253 23.1725C36.8519 23.4852 37.2766 23.6415 37.7993 23.6415C38.0653 23.6415 38.2939 23.6112 38.4853 23.5505C38.6813 23.4852 38.8516 23.4152 38.9963 23.3405C39.1456 23.2612 39.2786 23.1912 39.3953 23.1305C39.5166 23.0652 39.6356 23.0325 39.7523 23.0325C39.9016 23.0325 40.0183 23.0885 40.1023 23.2005L40.6623 23.9005C40.4569 24.1385 40.2306 24.3368 39.9833 24.4955C39.7359 24.6495 39.4793 24.7732 39.2133 24.8665C38.9473 24.9552 38.6789 25.0158 38.4083 25.0485C38.1376 25.0858 37.8763 25.1045 37.6243 25.1045C37.1203 25.1045 36.6489 25.0228 36.2103 24.8595C35.7763 24.6915 35.3959 24.4465 35.0693 24.1245C34.7473 23.7978 34.4929 23.3942 34.3063 22.9135C34.1196 22.4328 34.0263 21.8752 34.0263 21.2405C34.0263 20.7505 34.1056 20.2885 34.2643 19.8545C34.4276 19.4205 34.6609 19.0425 34.9643 18.7205C35.2676 18.3985 35.6363 18.1442 36.0703 17.9575C36.5043 17.7662 36.9943 17.6705 37.5403 17.6705C38.0023 17.6705 38.4269 17.7452 38.8143 17.8945C39.2063 18.0392 39.5423 18.2515 39.8223 18.5315C40.1069 18.8115 40.3263 19.1568 40.4803 19.5675C40.6389 19.9735 40.7183 20.4378 40.7183 20.9605C40.7183 21.1052 40.7113 21.2242 40.6973 21.3175C40.6833 21.4108 40.6599 21.4855 40.6273 21.5415C40.5946 21.5975 40.5503 21.6372 40.4943 21.6605C40.4383 21.6792 40.3659 21.6885 40.2773 21.6885H35.9513ZM45.6901 21.9825C45.2188 22.0058 44.8268 22.0478 44.5141 22.1085C44.2015 22.1645 43.9518 22.2392 43.7651 22.3325C43.5831 22.4258 43.4525 22.5332 43.3731 22.6545C43.2985 22.7712 43.2611 22.8995 43.2611 23.0395C43.2611 23.3195 43.3381 23.5178 43.4921 23.6345C43.6508 23.7512 43.8701 23.8095 44.1501 23.8095C44.4721 23.8095 44.7498 23.7535 44.9831 23.6415C45.2211 23.5248 45.4568 23.3452 45.6901 23.1025V21.9825ZM41.7561 18.7835C42.1808 18.4008 42.6498 18.1162 43.1631 17.9295C43.6765 17.7382 44.2318 17.6425 44.8291 17.6425C45.2585 17.6425 45.6411 17.7125 45.9771 17.8525C46.3178 17.9925 46.6048 18.1885 46.8381 18.4405C47.0761 18.6878 47.2581 18.9842 47.3841 19.3295C47.5101 19.6748 47.5731 20.0528 47.5731 20.4635V24.9995H46.6911C46.5091 24.9995 46.3691 24.9738 46.2711 24.9225C46.1778 24.8712 46.1008 24.7638 46.0401 24.6005L45.8861 24.1385C45.7041 24.2972 45.5268 24.4372 45.3541 24.5585C45.1861 24.6798 45.0111 24.7825 44.8291 24.8665C44.6471 24.9458 44.4511 25.0065 44.2411 25.0485C44.0358 25.0905 43.8048 25.1115 43.5481 25.1115C43.2308 25.1115 42.9415 25.0695 42.6801 24.9855C42.4188 24.9015 42.1925 24.7778 42.0011 24.6145C41.8145 24.4465 41.6698 24.2388 41.5671 23.9915C41.4645 23.7442 41.4131 23.4595 41.4131 23.1375C41.4131 22.8715 41.4808 22.6055 41.6161 22.3395C41.7515 22.0735 41.9825 21.8332 42.3091 21.6185C42.6405 21.3992 43.0791 21.2195 43.6251 21.0795C44.1758 20.9348 44.8641 20.8532 45.6901 20.8345V20.4635C45.6901 20.0108 45.5945 19.6795 45.4031 19.4695C45.2118 19.2548 44.9365 19.1475 44.5771 19.1475C44.3111 19.1475 44.0895 19.1802 43.9121 19.2455C43.7348 19.3062 43.5785 19.3738 43.4431 19.4485C43.3125 19.5185 43.1888 19.5862 43.0721 19.6515C42.9555 19.7122 42.8201 19.7425 42.6661 19.7425C42.5308 19.7425 42.4165 19.7098 42.3231 19.6445C42.2345 19.5745 42.1598 19.4928 42.0991 19.3995L41.7561 18.7835ZM53.5402 19.6585C53.3582 19.4485 53.1599 19.3015 52.9452 19.2175C52.7352 19.1335 52.5112 19.0915 52.2732 19.0915C52.0399 19.0915 51.8275 19.1358 51.6362 19.2245C51.4449 19.3132 51.2792 19.4532 51.1392 19.6445C51.0039 19.8312 50.8989 20.0715 50.8242 20.3655C50.7495 20.6595 50.7122 21.0095 50.7122 21.4155C50.7122 21.8168 50.7425 22.1575 50.8032 22.4375C50.8639 22.7175 50.9502 22.9438 51.0622 23.1165C51.1789 23.2892 51.3189 23.4152 51.4822 23.4945C51.6455 23.5692 51.8275 23.6065 52.0282 23.6065C52.3689 23.6065 52.6535 23.5388 52.8822 23.4035C53.1155 23.2682 53.3349 23.0768 53.5402 22.8295V19.6585ZM55.4722 14.5625V24.9995H54.2822C54.0349 24.9995 53.8762 24.8875 53.8062 24.6635L53.6452 24.0335C53.5005 24.1922 53.3465 24.3368 53.1832 24.4675C53.0245 24.5982 52.8519 24.7125 52.6652 24.8105C52.4785 24.9038 52.2779 24.9762 52.0632 25.0275C51.8485 25.0788 51.6152 25.1045 51.3632 25.1045C50.9759 25.1045 50.6212 25.0228 50.2992 24.8595C49.9772 24.6962 49.6972 24.4582 49.4592 24.1455C49.2259 23.8282 49.0439 23.4408 48.9132 22.9835C48.7825 22.5262 48.7172 22.0035 48.7172 21.4155C48.7172 20.8788 48.7895 20.3795 48.9342 19.9175C49.0835 19.4555 49.2935 19.0565 49.5642 18.7205C49.8349 18.3845 50.1615 18.1208 50.5442 17.9295C50.9269 17.7382 51.3515 17.6425 51.8182 17.6425C52.2102 17.6425 52.5392 17.7008 52.8052 17.8175C53.0759 17.9342 53.3209 18.0928 53.5402 18.2935V14.5625H55.4722ZM60.4015 24.9995V17.7825H61.5915C61.8342 17.7825 61.9952 17.8945 62.0745 18.1185L62.1865 18.5875C62.3125 18.4568 62.4408 18.3355 62.5715 18.2235C62.7068 18.1115 62.8515 18.0158 63.0055 17.9365C63.1595 17.8525 63.3252 17.7872 63.5025 17.7405C63.6845 17.6938 63.8805 17.6705 64.0905 17.6705C64.5338 17.6705 64.9002 17.7895 65.1895 18.0275C65.4788 18.2608 65.6982 18.5735 65.8475 18.9655C65.9642 18.7368 66.1065 18.5408 66.2745 18.3775C66.4472 18.2095 66.6338 18.0742 66.8345 17.9715C67.0398 17.8688 67.2545 17.7942 67.4785 17.7475C67.7072 17.6962 67.9358 17.6705 68.1645 17.6705C68.5705 17.6705 68.9298 17.7312 69.2425 17.8525C69.5552 17.9738 69.8165 18.1535 70.0265 18.3915C70.2412 18.6248 70.4045 18.9118 70.5165 19.2525C70.6285 19.5932 70.6845 19.9805 70.6845 20.4145V24.9995H68.7525V20.4145C68.7525 19.5698 68.3908 19.1475 67.6675 19.1475C67.5042 19.1475 67.3525 19.1755 67.2125 19.2315C67.0772 19.2828 66.9558 19.3622 66.8485 19.4695C66.7458 19.5768 66.6642 19.7098 66.6035 19.8685C66.5475 20.0272 66.5195 20.2092 66.5195 20.4145V24.9995H64.5875V20.4145C64.5875 19.9572 64.4965 19.6328 64.3145 19.4415C64.1372 19.2455 63.8735 19.1475 63.5235 19.1475C63.2995 19.1475 63.0872 19.2012 62.8865 19.3085C62.6905 19.4112 62.5062 19.5558 62.3335 19.7425V24.9995H60.4015ZM75.469 17.6705C76.0103 17.6705 76.5027 17.7568 76.946 17.9295C77.3893 18.1022 77.7697 18.3495 78.087 18.6715C78.4043 18.9888 78.6493 19.3762 78.822 19.8335C78.9947 20.2908 79.081 20.8065 79.081 21.3805C79.081 21.9545 78.9947 22.4725 78.822 22.9345C78.6493 23.3918 78.4043 23.7815 78.087 24.1035C77.7697 24.4255 77.3893 24.6728 76.946 24.8455C76.5027 25.0182 76.0103 25.1045 75.469 25.1045C74.923 25.1045 74.426 25.0182 73.978 24.8455C73.5347 24.6728 73.1543 24.4255 72.837 24.1035C72.5197 23.7815 72.2723 23.3918 72.095 22.9345C71.9223 22.4725 71.836 21.9545 71.836 21.3805C71.836 20.8065 71.9223 20.2908 72.095 19.8335C72.2723 19.3762 72.5197 18.9888 72.837 18.6715C73.1543 18.3495 73.5347 18.1022 73.978 17.9295C74.426 17.7568 74.923 17.6705 75.469 17.6705ZM75.469 23.6555C76.0197 23.6555 76.428 23.4665 76.694 23.0885C76.96 22.7058 77.093 22.1388 77.093 21.3875C77.093 20.6408 76.96 20.0785 76.694 19.7005C76.428 19.3178 76.0197 19.1265 75.469 19.1265C74.9043 19.1265 74.489 19.3178 74.223 19.7005C73.957 20.0785 73.824 20.6408 73.824 21.3875C73.824 22.1388 73.957 22.7058 74.223 23.0885C74.489 23.4665 74.9043 23.6555 75.469 23.6555ZM82.1071 18.9725C82.3358 18.5618 82.5994 18.2375 82.8981 17.9995C83.1968 17.7615 83.5468 17.6425 83.9481 17.6425C84.2748 17.6425 84.5408 17.7195 84.7461 17.8735L84.6201 19.3015C84.5968 19.3948 84.5594 19.4602 84.5081 19.4975C84.4614 19.5302 84.3961 19.5465 84.3121 19.5465C84.2374 19.5465 84.1301 19.5372 83.9901 19.5185C83.8501 19.4952 83.7194 19.4835 83.5981 19.4835C83.4208 19.4835 83.2621 19.5092 83.1221 19.5605C82.9868 19.6118 82.8654 19.6842 82.7581 19.7775C82.6508 19.8708 82.5528 19.9852 82.4641 20.1205C82.3801 20.2558 82.3008 20.4098 82.2261 20.5825V24.9995H80.2941V17.7825H81.4351C81.6311 17.7825 81.7664 17.8175 81.8411 17.8875C81.9158 17.9575 81.9694 18.0788 82.0021 18.2515L82.1071 18.9725ZM89.9854 20.5405C89.9854 20.3398 89.9574 20.1485 89.9014 19.9665C89.85 19.7845 89.766 19.6235 89.6494 19.4835C89.5327 19.3435 89.3857 19.2338 89.2084 19.1545C89.031 19.0705 88.8187 19.0285 88.5714 19.0285C88.1094 19.0285 87.7477 19.1592 87.4864 19.4205C87.225 19.6818 87.0547 20.0552 86.9754 20.5405H89.9854ZM86.9474 21.6885C87.008 22.3652 87.1994 22.8598 87.5214 23.1725C87.848 23.4852 88.2727 23.6415 88.7954 23.6415C89.0614 23.6415 89.29 23.6112 89.4814 23.5505C89.6774 23.4852 89.8477 23.4152 89.9924 23.3405C90.1417 23.2612 90.2747 23.1912 90.3914 23.1305C90.5127 23.0652 90.6317 23.0325 90.7484 23.0325C90.8977 23.0325 91.0144 23.0885 91.0984 23.2005L91.6584 23.9005C91.453 24.1385 91.2267 24.3368 90.9794 24.4955C90.732 24.6495 90.4754 24.7732 90.2094 24.8665C89.9434 24.9552 89.675 25.0158 89.4044 25.0485C89.1337 25.0858 88.8724 25.1045 88.6204 25.1045C88.1164 25.1045 87.645 25.0228 87.2064 24.8595C86.7724 24.6915 86.392 24.4465 86.0654 24.1245C85.7434 23.7978 85.489 23.3942 85.3024 22.9135C85.1157 22.4328 85.0224 21.8752 85.0224 21.2405C85.0224 20.7505 85.1017 20.2885 85.2604 19.8545C85.4237 19.4205 85.657 19.0425 85.9604 18.7205C86.2637 18.3985 86.6324 18.1442 87.0664 17.9575C87.5004 17.7662 87.9904 17.6705 88.5364 17.6705C88.9984 17.6705 89.423 17.7452 89.8104 17.8945C90.2024 18.0392 90.5384 18.2515 90.8184 18.5315C91.103 18.8115 91.3224 19.1568 91.4764 19.5675C91.635 19.9735 91.7144 20.4378 91.7144 20.9605C91.7144 21.1052 91.7074 21.2242 91.6934 21.3175C91.6794 21.4108 91.656 21.4855 91.6234 21.5415C91.5907 21.5975 91.5464 21.6372 91.4904 21.6605C91.4344 21.6792 91.362 21.6885 91.2734 21.6885H86.9474Z" fill="white"/>
</svg>
