<svg width="185" height="40" viewBox="0 0 185 40" fill="none" xmlns="http://www.w3.org/2000/svg">
<rect width="185" height="40" rx="20" fill="#4592FF"/>
<path d="M149.909 23.817C150.044 23.817 150.152 23.8567 150.231 23.936C150.31 24.0153 150.35 24.118 150.35 24.244V25H143.658V24.573C143.658 24.4843 143.677 24.3933 143.714 24.3C143.751 24.2067 143.81 24.1203 143.889 24.041L147.102 20.814C147.368 20.5433 147.611 20.2843 147.83 20.037C148.049 19.785 148.236 19.533 148.39 19.281C148.544 19.029 148.663 18.7747 148.747 18.518C148.831 18.2567 148.873 17.979 148.873 17.685C148.873 17.391 148.826 17.1343 148.733 16.915C148.64 16.691 148.511 16.5067 148.348 16.362C148.189 16.2173 148 16.11 147.781 16.04C147.562 15.9653 147.326 15.928 147.074 15.928C146.817 15.928 146.582 15.9653 146.367 16.04C146.152 16.1147 145.961 16.2197 145.793 16.355C145.63 16.4857 145.492 16.642 145.38 16.824C145.268 17.006 145.189 17.2067 145.142 17.426C145.086 17.5893 145.009 17.699 144.911 17.755C144.818 17.8063 144.685 17.8203 144.512 17.797L143.861 17.685C143.926 17.2277 144.052 16.824 144.239 16.474C144.43 16.1193 144.668 15.823 144.953 15.585C145.242 15.347 145.571 15.1673 145.94 15.046C146.309 14.92 146.708 14.857 147.137 14.857C147.562 14.857 147.958 14.92 148.327 15.046C148.696 15.172 149.015 15.3563 149.286 15.599C149.557 15.837 149.769 16.1287 149.923 16.474C150.077 16.8193 150.154 17.2113 150.154 17.65C150.154 18.0233 150.098 18.371 149.986 18.693C149.874 19.0103 149.722 19.3137 149.531 19.603C149.34 19.8923 149.118 20.1747 148.866 20.45C148.619 20.7253 148.355 21.003 148.075 21.283L145.429 23.985C145.616 23.9337 145.805 23.894 145.996 23.866C146.187 23.8333 146.372 23.817 146.549 23.817H149.909ZM155.167 24.076C155.503 24.076 155.806 24.0223 156.077 23.915C156.352 23.8077 156.586 23.6583 156.777 23.467C156.973 23.2757 157.122 23.0493 157.225 22.788C157.332 22.5267 157.386 22.242 157.386 21.934C157.386 21.6073 157.335 21.3133 157.232 21.052C157.129 20.786 156.982 20.562 156.791 20.38C156.604 20.1933 156.38 20.051 156.119 19.953C155.858 19.855 155.571 19.806 155.258 19.806C154.922 19.806 154.619 19.8643 154.348 19.981C154.077 20.093 153.846 20.247 153.655 20.443C153.468 20.6343 153.324 20.8583 153.221 21.115C153.123 21.367 153.074 21.6307 153.074 21.906C153.074 22.228 153.121 22.522 153.214 22.788C153.307 23.054 153.443 23.2827 153.62 23.474C153.802 23.6653 154.021 23.8147 154.278 23.922C154.539 24.0247 154.836 24.076 155.167 24.076ZM154.439 18.728C154.35 18.84 154.264 18.9497 154.18 19.057C154.101 19.1597 154.024 19.2623 153.949 19.365C154.187 19.2017 154.448 19.0757 154.733 18.987C155.018 18.8983 155.328 18.854 155.664 18.854C156.07 18.854 156.453 18.9217 156.812 19.057C157.171 19.1877 157.484 19.3813 157.75 19.638C158.021 19.89 158.235 20.2027 158.394 20.576C158.553 20.9447 158.632 21.367 158.632 21.843C158.632 22.305 158.548 22.7343 158.38 23.131C158.212 23.5277 157.976 23.873 157.673 24.167C157.374 24.461 157.013 24.692 156.588 24.86C156.168 25.028 155.704 25.112 155.195 25.112C154.691 25.112 154.234 25.0327 153.823 24.874C153.412 24.7107 153.062 24.482 152.773 24.188C152.488 23.8893 152.267 23.53 152.108 23.11C151.954 22.6853 151.877 22.2117 151.877 21.689C151.877 21.2503 151.973 20.7837 152.164 20.289C152.36 19.7897 152.67 19.2577 153.095 18.693L155.643 15.27C155.708 15.186 155.797 15.116 155.909 15.06C156.026 14.9993 156.159 14.969 156.308 14.969H157.414L154.439 18.728Z" fill="#C5E4FC"/>
<path d="M64.728 14.843L61.578 25H59.681L57.602 18.357C57.5693 18.2637 57.5367 18.161 57.504 18.049C57.4713 17.937 57.441 17.818 57.413 17.692C57.385 17.818 57.3547 17.937 57.322 18.049C57.2893 18.161 57.2567 18.2637 57.224 18.357L55.124 25H53.22L50.077 14.843H51.841C52.023 14.843 52.1747 14.885 52.296 14.969C52.422 15.053 52.5037 15.165 52.541 15.305L54.116 21.031C54.1533 21.1897 54.1907 21.3623 54.228 21.549C54.27 21.731 54.3097 21.9247 54.347 22.13C54.389 21.92 54.4333 21.724 54.48 21.542C54.5267 21.36 54.578 21.1897 54.634 21.031L56.468 15.305C56.5053 15.1883 56.5847 15.0833 56.706 14.99C56.832 14.892 56.9837 14.843 57.161 14.843H57.777C57.959 14.843 58.106 14.8873 58.218 14.976C58.3347 15.06 58.421 15.1697 58.477 15.305L60.304 21.031C60.36 21.1803 60.4113 21.3437 60.458 21.521C60.5047 21.6937 60.549 21.878 60.591 22.074C60.6283 21.878 60.6633 21.6937 60.696 21.521C60.7333 21.3437 60.7707 21.1803 60.808 21.031L62.383 15.305C62.4157 15.1837 62.495 15.0763 62.621 14.983C62.747 14.8897 62.8987 14.843 63.076 14.843H64.728ZM68.4753 21.983C68.004 22.0063 67.612 22.0483 67.2993 22.109C66.9866 22.165 66.737 22.2397 66.5503 22.333C66.3683 22.4263 66.2376 22.5337 66.1583 22.655C66.0836 22.7717 66.0463 22.9 66.0463 23.04C66.0463 23.32 66.1233 23.5183 66.2773 23.635C66.436 23.7517 66.6553 23.81 66.9353 23.81C67.2573 23.81 67.535 23.754 67.7683 23.642C68.0063 23.5253 68.242 23.3457 68.4753 23.103V21.983ZM64.5413 18.784C64.966 18.4013 65.435 18.1167 65.9483 17.93C66.4616 17.7387 67.017 17.643 67.6143 17.643C68.0436 17.643 68.4263 17.713 68.7623 17.853C69.103 17.993 69.39 18.189 69.6233 18.441C69.8613 18.6883 70.0433 18.9847 70.1693 19.33C70.2953 19.6753 70.3583 20.0533 70.3583 20.464V25H69.4763C69.2943 25 69.1543 24.9743 69.0563 24.923C68.963 24.8717 68.886 24.7643 68.8253 24.601L68.6713 24.139C68.4893 24.2977 68.312 24.4377 68.1393 24.559C67.9713 24.6803 67.7963 24.783 67.6143 24.867C67.4323 24.9463 67.2363 25.007 67.0263 25.049C66.821 25.091 66.59 25.112 66.3333 25.112C66.016 25.112 65.7266 25.07 65.4653 24.986C65.204 24.902 64.9776 24.7783 64.7863 24.615C64.5996 24.447 64.455 24.2393 64.3523 23.992C64.2496 23.7447 64.1983 23.46 64.1983 23.138C64.1983 22.872 64.266 22.606 64.4013 22.34C64.5366 22.074 64.7676 21.8337 65.0943 21.619C65.4256 21.3997 65.8643 21.22 66.4103 21.08C66.961 20.9353 67.6493 20.8537 68.4753 20.835V20.464C68.4753 20.0113 68.3796 19.68 68.1883 19.47C67.997 19.2553 67.7216 19.148 67.3623 19.148C67.0963 19.148 66.8746 19.1807 66.6973 19.246C66.52 19.3067 66.3636 19.3743 66.2283 19.449C66.0976 19.519 65.974 19.5867 65.8573 19.652C65.7406 19.7127 65.6053 19.743 65.4513 19.743C65.316 19.743 65.2016 19.7103 65.1083 19.645C65.0196 19.575 64.945 19.4933 64.8843 19.4L64.5413 18.784ZM74.3584 25.112C74.0317 25.112 73.7424 25.0653 73.4904 24.972C73.2384 24.874 73.026 24.7363 72.8534 24.559C72.6807 24.3817 72.55 24.167 72.4614 23.915C72.3727 23.663 72.3284 23.3783 72.3284 23.061V19.169H71.6494C71.5467 19.169 71.458 19.1363 71.3834 19.071C71.3134 19.0057 71.2784 18.9077 71.2784 18.777V18.021L72.4334 17.811L72.8254 15.942C72.8767 15.732 73.019 15.627 73.2524 15.627H74.2604V17.825H76.1224V19.169H74.2604V22.935C74.2604 23.1357 74.307 23.2943 74.4004 23.411C74.4984 23.5277 74.636 23.586 74.8134 23.586C74.9067 23.586 74.986 23.5767 75.0514 23.558C75.1167 23.5347 75.1727 23.5113 75.2194 23.488C75.266 23.46 75.308 23.4367 75.3454 23.418C75.3874 23.3947 75.4294 23.383 75.4714 23.383C75.5274 23.383 75.574 23.397 75.6114 23.425C75.6487 23.4483 75.686 23.4903 75.7234 23.551L76.3044 24.475C76.0384 24.685 75.7374 24.8437 75.4014 24.951C75.0654 25.0583 74.7177 25.112 74.3584 25.112ZM82.325 19.393C82.269 19.4677 82.213 19.526 82.157 19.568C82.101 19.6053 82.0217 19.624 81.919 19.624C81.8257 19.624 81.7347 19.5983 81.646 19.547C81.562 19.491 81.464 19.4327 81.352 19.372C81.24 19.3067 81.107 19.2483 80.953 19.197C80.799 19.141 80.6077 19.113 80.379 19.113C80.0897 19.113 79.8377 19.1667 79.623 19.274C79.413 19.3767 79.238 19.526 79.098 19.722C78.958 19.918 78.853 20.156 78.783 20.436C78.7177 20.716 78.685 21.031 78.685 21.381C78.685 22.1183 78.832 22.683 79.126 23.075C79.4247 23.467 79.8307 23.663 80.344 23.663C80.5213 23.663 80.673 23.649 80.799 23.621C80.9297 23.5883 81.0417 23.5487 81.135 23.502C81.233 23.4553 81.317 23.404 81.387 23.348C81.457 23.292 81.5223 23.2407 81.583 23.194C81.6483 23.1473 81.7113 23.11 81.772 23.082C81.8373 23.0493 81.9097 23.033 81.989 23.033C82.1383 23.033 82.255 23.089 82.339 23.201L82.892 23.901C82.6867 24.139 82.4673 24.3373 82.234 24.496C82.0007 24.65 81.758 24.7737 81.506 24.867C81.2587 24.9557 81.0067 25.0163 80.75 25.049C80.4933 25.0863 80.239 25.105 79.987 25.105C79.5437 25.105 79.1237 25.0233 78.727 24.86C78.3303 24.692 77.9827 24.4493 77.684 24.132C77.3853 23.8147 77.1473 23.425 76.97 22.963C76.7973 22.501 76.711 21.9737 76.711 21.381C76.711 20.8537 76.788 20.3637 76.942 19.911C77.096 19.4583 77.3223 19.0663 77.621 18.735C77.9197 18.4037 78.2883 18.1447 78.727 17.958C79.1703 17.7667 79.6813 17.671 80.26 17.671C80.8107 17.671 81.2937 17.7597 81.709 17.937C82.1243 18.1143 82.4977 18.371 82.829 18.707L82.325 19.393ZM85.8023 18.49C85.9376 18.3687 86.0776 18.259 86.2223 18.161C86.3716 18.0583 86.5279 17.972 86.6913 17.902C86.8593 17.8273 87.0366 17.7713 87.2233 17.734C87.4146 17.692 87.6199 17.671 87.8393 17.671C88.2313 17.671 88.5789 17.7387 88.8823 17.874C89.1856 18.0093 89.4399 18.1983 89.6453 18.441C89.8553 18.6837 90.0116 18.973 90.1143 19.309C90.2216 19.645 90.2753 20.0137 90.2753 20.415V25H88.3503V20.415C88.3503 20.0137 88.2569 19.7033 88.0703 19.484C87.8836 19.26 87.6083 19.148 87.2443 19.148C86.9736 19.148 86.7193 19.2063 86.4813 19.323C86.2433 19.4397 86.0169 19.603 85.8023 19.813V25H83.8703V14.563H85.8023V18.49ZM97.0679 23.096C97.2499 23.306 97.4459 23.453 97.6559 23.537C97.8706 23.621 98.0992 23.663 98.3419 23.663C98.5752 23.663 98.7876 23.6187 98.9789 23.53C99.1702 23.4413 99.3336 23.3037 99.4689 23.117C99.6089 22.9257 99.7162 22.683 99.7909 22.389C99.8656 22.095 99.9029 21.745 99.9029 21.339C99.9029 20.9377 99.8702 20.597 99.8049 20.317C99.7442 20.037 99.6556 19.8107 99.5389 19.638C99.4269 19.4653 99.2892 19.3417 99.1259 19.267C98.9626 19.1877 98.7806 19.148 98.5799 19.148C98.2392 19.148 97.9522 19.2157 97.7189 19.351C97.4902 19.4817 97.2732 19.6753 97.0679 19.932V23.096ZM96.9559 18.728C97.1006 18.5693 97.2546 18.4247 97.4179 18.294C97.5812 18.1587 97.7562 18.0443 97.9429 17.951C98.1296 17.853 98.3302 17.7783 98.5449 17.727C98.7596 17.671 98.9929 17.643 99.2449 17.643C99.6322 17.643 99.9869 17.727 100.309 17.895C100.636 18.0583 100.916 18.2987 101.149 18.616C101.382 18.9287 101.564 19.3137 101.695 19.771C101.826 20.2283 101.891 20.751 101.891 21.339C101.891 21.8803 101.816 22.382 101.667 22.844C101.522 23.3013 101.315 23.698 101.044 24.034C100.773 24.37 100.447 24.6337 100.064 24.825C99.6859 25.0117 99.2636 25.105 98.7969 25.105C98.4049 25.105 98.0712 25.0467 97.7959 24.93C97.5252 24.8133 97.2826 24.6547 97.0679 24.454V27.331H95.1359V17.783H96.3259C96.5686 17.783 96.7296 17.895 96.8089 18.119L96.9559 18.728ZM105.066 18.49C105.201 18.3687 105.341 18.259 105.486 18.161C105.635 18.0583 105.792 17.972 105.955 17.902C106.123 17.8273 106.3 17.7713 106.487 17.734C106.678 17.692 106.884 17.671 107.103 17.671C107.495 17.671 107.843 17.7387 108.146 17.874C108.449 18.0093 108.704 18.1983 108.909 18.441C109.119 18.6837 109.275 18.973 109.378 19.309C109.485 19.645 109.539 20.0137 109.539 20.415V25H107.614V20.415C107.614 20.0137 107.521 19.7033 107.334 19.484C107.147 19.26 106.872 19.148 106.508 19.148C106.237 19.148 105.983 19.2063 105.745 19.323C105.507 19.4397 105.281 19.603 105.066 19.813V25H103.134V14.563H105.066V18.49ZM114.332 17.671C114.874 17.671 115.366 17.7573 115.809 17.93C116.253 18.1027 116.633 18.35 116.95 18.672C117.268 18.9893 117.513 19.3767 117.685 19.834C117.858 20.2913 117.944 20.807 117.944 21.381C117.944 21.955 117.858 22.473 117.685 22.935C117.513 23.3923 117.268 23.782 116.95 24.104C116.633 24.426 116.253 24.6733 115.809 24.846C115.366 25.0187 114.874 25.105 114.332 25.105C113.786 25.105 113.289 25.0187 112.841 24.846C112.398 24.6733 112.018 24.426 111.7 24.104C111.383 23.782 111.136 23.3923 110.958 22.935C110.786 22.473 110.699 21.955 110.699 21.381C110.699 20.807 110.786 20.2913 110.958 19.834C111.136 19.3767 111.383 18.9893 111.7 18.672C112.018 18.35 112.398 18.1027 112.841 17.93C113.289 17.7573 113.786 17.671 114.332 17.671ZM114.332 23.656C114.883 23.656 115.291 23.467 115.557 23.089C115.823 22.7063 115.956 22.1393 115.956 21.388C115.956 20.6413 115.823 20.079 115.557 19.701C115.291 19.3183 114.883 19.127 114.332 19.127C113.768 19.127 113.352 19.3183 113.086 19.701C112.82 20.079 112.687 20.6413 112.687 21.388C112.687 22.1393 112.82 22.7063 113.086 23.089C113.352 23.467 113.768 23.656 114.332 23.656ZM121.513 25.112C121.186 25.112 120.897 25.0653 120.645 24.972C120.393 24.874 120.18 24.7363 120.008 24.559C119.835 24.3817 119.704 24.167 119.616 23.915C119.527 23.663 119.483 23.3783 119.483 23.061V19.169H118.804C118.701 19.169 118.612 19.1363 118.538 19.071C118.468 19.0057 118.433 18.9077 118.433 18.777V18.021L119.588 17.811L119.98 15.942C120.031 15.732 120.173 15.627 120.407 15.627H121.415V17.825H123.277V19.169H121.415V22.935C121.415 23.1357 121.461 23.2943 121.555 23.411C121.653 23.5277 121.79 23.586 121.968 23.586C122.061 23.586 122.14 23.5767 122.206 23.558C122.271 23.5347 122.327 23.5113 122.374 23.488C122.42 23.46 122.462 23.4367 122.5 23.418C122.542 23.3947 122.584 23.383 122.626 23.383C122.682 23.383 122.728 23.397 122.766 23.425C122.803 23.4483 122.84 23.4903 122.878 23.551L123.459 24.475C123.193 24.685 122.892 24.8437 122.556 24.951C122.22 25.0583 121.872 25.112 121.513 25.112ZM127.498 17.671C128.04 17.671 128.532 17.7573 128.975 17.93C129.419 18.1027 129.799 18.35 130.116 18.672C130.434 18.9893 130.679 19.3767 130.851 19.834C131.024 20.2913 131.11 20.807 131.11 21.381C131.11 21.955 131.024 22.473 130.851 22.935C130.679 23.3923 130.434 23.782 130.116 24.104C129.799 24.426 129.419 24.6733 128.975 24.846C128.532 25.0187 128.04 25.105 127.498 25.105C126.952 25.105 126.455 25.0187 126.007 24.846C125.564 24.6733 125.184 24.426 124.866 24.104C124.549 23.782 124.302 23.3923 124.124 22.935C123.952 22.473 123.865 21.955 123.865 21.381C123.865 20.807 123.952 20.2913 124.124 19.834C124.302 19.3767 124.549 18.9893 124.866 18.672C125.184 18.35 125.564 18.1027 126.007 17.93C126.455 17.7573 126.952 17.671 127.498 17.671ZM127.498 23.656C128.049 23.656 128.457 23.467 128.723 23.089C128.989 22.7063 129.122 22.1393 129.122 21.388C129.122 20.6413 128.989 20.079 128.723 19.701C128.457 19.3183 128.049 19.127 127.498 19.127C126.934 19.127 126.518 19.3183 126.252 19.701C125.986 20.079 125.853 20.6413 125.853 21.388C125.853 22.1393 125.986 22.7063 126.252 23.089C126.518 23.467 126.934 23.656 127.498 23.656ZM136.81 19.267C136.759 19.3463 136.705 19.4047 136.649 19.442C136.598 19.4747 136.526 19.491 136.432 19.491C136.339 19.491 136.243 19.4677 136.145 19.421C136.047 19.3743 135.938 19.3253 135.816 19.274C135.695 19.218 135.555 19.1667 135.396 19.12C135.242 19.0733 135.063 19.05 134.857 19.05C134.545 19.05 134.302 19.1153 134.129 19.246C133.957 19.372 133.87 19.54 133.87 19.75C133.87 19.8947 133.919 20.016 134.017 20.114C134.115 20.212 134.244 20.2983 134.402 20.373C134.566 20.443 134.75 20.5107 134.955 20.576C135.161 20.6367 135.371 20.7043 135.585 20.779C135.805 20.8537 136.017 20.94 136.222 21.038C136.428 21.136 136.61 21.2597 136.768 21.409C136.932 21.5537 137.062 21.731 137.16 21.941C137.258 22.1463 137.307 22.396 137.307 22.69C137.307 23.04 137.242 23.3643 137.111 23.663C136.985 23.957 136.799 24.2113 136.551 24.426C136.304 24.6407 135.996 24.8087 135.627 24.93C135.259 25.0513 134.834 25.112 134.353 25.112C134.106 25.112 133.861 25.0887 133.618 25.042C133.376 25 133.145 24.9393 132.925 24.86C132.706 24.776 132.501 24.6803 132.309 24.573C132.118 24.4657 131.952 24.349 131.812 24.223L132.26 23.502C132.312 23.418 132.375 23.3527 132.449 23.306C132.529 23.2593 132.629 23.236 132.75 23.236C132.867 23.236 132.974 23.2663 133.072 23.327C133.17 23.383 133.28 23.446 133.401 23.516C133.523 23.5813 133.665 23.6443 133.828 23.705C133.996 23.761 134.204 23.789 134.451 23.789C134.638 23.789 134.799 23.768 134.934 23.726C135.07 23.684 135.179 23.628 135.263 23.558C135.347 23.4833 135.408 23.4017 135.445 23.313C135.487 23.2197 135.508 23.124 135.508 23.026C135.508 22.8673 135.457 22.739 135.354 22.641C135.256 22.5383 135.126 22.4497 134.962 22.375C134.804 22.3003 134.619 22.2327 134.409 22.172C134.199 22.1113 133.985 22.0437 133.765 21.969C133.551 21.8943 133.338 21.8057 133.128 21.703C132.923 21.6003 132.739 21.472 132.575 21.318C132.417 21.1593 132.286 20.9657 132.183 20.737C132.085 20.5083 132.036 20.2307 132.036 19.904C132.036 19.6053 132.095 19.323 132.211 19.057C132.328 18.7863 132.503 18.5483 132.736 18.343C132.97 18.1377 133.259 17.9743 133.604 17.853C133.954 17.7317 134.358 17.671 134.815 17.671C135.329 17.671 135.795 17.755 136.215 17.923C136.635 18.091 136.981 18.3103 137.251 18.581L136.81 19.267Z" fill="white"/>
<path fill-rule="evenodd" clip-rule="evenodd" d="M23 16V14C23 13.4477 23.4477 13 24 13H38C38.5523 13 39 13.4477 39 14V24C39 24.5523 38.5523 25 38 25H36V27C36 27.5523 35.5523 28 35 28H21C20.4477 28 20 27.5523 20 27V17C20 16.4477 20.4477 16 21 16H23ZM35 25H24C23.4477 25 23 24.5523 23 24V17H21V27H35V25ZM24 14V24H38V14H24ZM38 24H24V23L27 20L30 22L34 18L38 23V24ZM29.5 19C28.6716 19 28 18.3284 28 17.5C28 16.6716 28.6716 16 29.5 16C30.3284 16 31 16.6716 31 17.5C31 18.3284 30.3284 19 29.5 19Z" fill="white"/>
</svg>
